# xmcd CD database file
#
# Track frame offsets:
#	150
#	25582
#	46722
#	74137
#	84972
#	101142
#	113605
#	120837
#	126560
#	149460
#	162063
#	172654
#	185062
#	196785
#	214171
#	228935
#	236025
#	248677
#	258038
#	269550
#	281019
#
# Disc length: 3963 seconds
#
# Revision: 0
# Processed by: cddbd v1.5.2PL0 Copyright (c) Steve Scherf et al.
# Submitted via: CDex 1.70beta2
#
DISCID=210f7915
DTITLE=Jacques Loussier - The Original Play Bach Vol. 3 and Joue Kurt Weil
DYEAR=1961
DGENRE=Jazz
TTITLE0=Concerto Italien in F Major (BWV 971) - I. Allegro
TTITLE1=Concerto Italien in F Minor (BWV 971) - II. Andante
TTITLE2=Concerto Italien in F Major (BWV 971) - III. Finale
TTITLE3=Two Voice Invention No. 1 in C Major (BWV 722)
TTITLE4=Two Voice Invention No. 13 in A Minor ( BWV 784)
TTITLE5=Two Voice Invention No. 8 in F Major (BWV 779)
TTITLE6=Two Voice Invention No. 14 in B Flat Major (BWV 785)
TTITLE7=Two Voice Invention No. 15 in B Minor (BWV 786)
TTITLE8=Fantasy in C Minor (BWV 906)
TTITLE9=La Complaint de Mackie (Mack The Knife)
TTITLE10=La Chanson de Mandeley
TTITLE11=Mona' Lied
TTITLE12=La Chanson de Bilbao
TTITLE13=Stay Well
TTITLE14=La Fiancee du Pirate
TTITLE15=Le Chant des Canons
TTITLE16=Oh! Heart of Love
TTITLE17=Le Tango des Matelots
TTITLE18=Sorabaya Johnny
TTITLE19=Mon Ami, My Friend
TTITLE20=La Chanson de Barbara
EXTD=YEAR: 1961
EXTT0=
EXTT1=
EXTT2=
EXTT3=
EXTT4=
EXTT5=
EXTT6=
EXTT7=
EXTT8=
EXTT9=
EXTT10=
EXTT11=
EXTT12=
EXTT13=
EXTT14=
EXTT15=
EXTT16=
EXTT17=
EXTT18=
EXTT19=
EXTT20=
PLAYORDER=
